<svg xmlns="http://www.w3.org/2000/svg" width="113" height="126" fill="none"><path fill="url(#a)" d="M82.927 80.058q-.952-10.401-.952-22.266V23.515Q81.9 8.939 80.73.81h32.153q-1.171 7.983-1.245 22.851v79.614q.074 14.43 1.245 22.339h-32.96q-3.66-7.617-11.279-19.043L40.96 64.677q-6.225-9.45-10.693-18.384a223 223 0 0 1 .952 22.266v33.618q0 15.6 1.245 23.437H.456q1.245-7.47 1.245-23.584V23.148Q1.555 9.378.456.81h32.666q1.685 5.493 10.62 18.823l28.345 42.48q6.225 9.302 10.84 17.945"/><defs><linearGradient id="a" x1="-667" x2="140.828" y1="-42.816" y2="385.126" gradientUnits="userSpaceOnUse"><stop stop-color="#001F63"/><stop offset="1" stop-color="#00E1EC"/></linearGradient></defs></svg>