<svg xmlns="http://www.w3.org/2000/svg" width="136" height="126" fill="none"><path fill="url(#a)" d="M54.852 125.614q-.953-6.811-6.372-22.192L34.637 63.505A1701 1701 0 0 1 29.51 47.61q-1.612-5.2-2.417-7.47 1.537 17.798 1.465 29.736v32.446q0 15.381 1.245 23.291H.286q1.172-8.495 1.245-23.291v-78.15Q1.385 8.574.286.81H39.91q1.1 8.13 5.64 21.167l22.485 64.672 22.339-64.672Q95.061 8.5 96.014.81h39.697q-1.245 9.375-1.245 23.364v78.149q0 15.967 1.245 23.291h-29.517q1.172-8.35 1.172-23.291V69.731q.366-11.94 1.392-29.737-3.663 13.33-6.812 22.486l-14.502 41.015q-5.712 16.626-6.372 22.119z"/><defs><linearGradient id="a" x1="-268" x2="539.828" y1="-42.816" y2="385.126" gradientUnits="userSpaceOnUse"><stop stop-color="#001F63"/><stop offset="1" stop-color="#00E1EC"/></linearGradient></defs></svg>