<svg xmlns="http://www.w3.org/2000/svg" width="117" height="131" fill="none"><path fill="url(#a)" d="M84.429 46.242Q79.96 25.808 60.772 25.808q-11.719 0-19.043 7.544-4.249 4.394-6.226 9.814-3.662 9.96-3.662 21.826 0 11.133 3.515 21.094 3.443 9.522 11.426 14.282 6.519 3.955 14.649 3.955 8.056 0 14.135-4.028 5.567-3.736 8.203-10.18 1.1-2.784 1.758-7.984l31.348 4.614q-2.05 9.082-4.541 14.722-6.225 13.769-17.944 21.094-5.86 3.588-13.77 5.639-8.716 2.271-18.237 2.271-13.77 0-26.074-4.541-17.066-6.3-26.587-22.779-4.834-8.35-7.325-19.921-1.83-8.863-1.83-18.165 0-14.648 4.614-27.905 4.247-12.304 13.55-21.387 7.69-7.617 17.944-11.352Q48.54.1 61.797.1q29.297 0 44.238 19.629 4.98 6.444 7.471 13.842.805 2.417 1.758 6.665z"/><defs><linearGradient id="a" x1="-5" x2="802.828" y1="-40.816" y2="387.126" gradientUnits="userSpaceOnUse"><stop stop-color="#001F63"/><stop offset="1" stop-color="#00E1EC"/></linearGradient></defs></svg>