<svg xmlns="http://www.w3.org/2000/svg" width="102" height="126" fill="none"><path fill="url(#a)" d="M.388 125.614q1.17-8.276 1.245-22.265V22.343Q1.56 9.525.388.37q9.228.44 22.119.44h32.812q23.731 0 35.816 11.938 10.18 10.18 10.18 28.418 0 19.19-11.206 30.322-12.378 12.305-34.936 12.305H31.369v19.116q.073 14.502 1.245 22.705zm30.981-67.31h22.339q8.057 0 12.451-4.32 4.395-4.175 4.395-11.94 0-7.323-4.029-11.425-4.174-4.32-12.817-4.321H31.369z"/><defs><linearGradient id="a" x1="-422" x2="385.828" y1="-42.816" y2="385.126" gradientUnits="userSpaceOnUse"><stop stop-color="#001F63"/><stop offset="1" stop-color="#00E1EC"/></linearGradient></defs></svg>