<svg xmlns="http://www.w3.org/2000/svg" width="122" height="131" fill="none"><path fill="url(#a)" d="M61.799.1q18.018 0 31.933 8.422 13.477 8.13 20.435 22.266 7.251 14.795 7.251 33.911 0 16.04-5.64 30.323-4.247 10.766-12.671 19.189-16.405 16.333-42.334 16.333-13.403 0-25.415-4.834-16.112-6.446-25.415-21.899-5.053-8.35-7.617-19.85Q.276 74.88.276 65.286q0-16.186 5.566-30.395 4.028-10.4 12.231-18.457Q34.625.099 61.8.1m-1.32 25.78q-11.132 0-18.823 7.618-4.54 4.54-6.665 10.254-3.662 9.96-3.662 21.313 0 11.5 3.735 21.46 2.124 5.714 6.812 10.4 7.47 7.618 19.043 7.618 11.426 0 18.75-7.47 4.541-4.542 6.811-10.328 3.735-9.96 3.736-21.24 0-11.939-3.736-21.973-3.222-8.862-11.279-13.77-6.226-3.88-14.721-3.881"/><defs><linearGradient id="a" x1="-132" x2="675.828" y1="-40.816" y2="387.126" gradientUnits="userSpaceOnUse"><stop stop-color="#001F63"/><stop offset="1" stop-color="#00E1EC"/></linearGradient></defs></svg>