<svg xmlns="http://www.w3.org/2000/svg" width="73" height="81" fill="none"><path fill="url(#a)" d="M52.825 28.759q-2.766-12.54-14.645-12.54-7.255 0-11.789 4.63-2.629 2.697-3.854 6.022-2.267 6.113-2.267 13.394 0 6.83 2.177 12.943 2.13 5.843 7.073 8.764 4.035 2.427 9.068 2.427 4.988 0 8.75-2.471 3.447-2.293 5.078-6.248.681-1.707 1.089-4.899l19.405 2.832q-1.27 5.573-2.81 9.034-3.855 8.45-11.11 12.943-3.626 2.203-8.523 3.461-5.395 1.393-11.29 1.393-8.524 0-16.14-2.786-10.565-3.865-16.46-13.978-2.992-5.123-4.533-12.224A54.5 54.5 0 0 1 .91 40.309q0-8.988 2.857-17.123 2.63-7.55 8.388-13.124 4.76-4.674 11.108-6.966Q30.608.444 38.814.444 56.951.444 66.2 12.49q3.083 3.955 4.624 8.495.5 1.482 1.089 4.09z"/><defs><linearGradient id="a" x1="-2.536" x2="495.611" y1="-24.663" y2="241.554" gradientUnits="userSpaceOnUse"><stop stop-color="#001F63"/><stop offset="1" stop-color="#00E1EC"/></linearGradient></defs></svg>