<svg xmlns="http://www.w3.org/2000/svg" width="96" height="61" fill="none"><path fill="url(#a)" d="M0 60.188q.75-5.532.75-14.485V16.078Q.75 6 0 1.594h18.984v4.078q0 .422-.047 1.266v.937Q26.063 0 37.314 0 44.719 0 49.5 3.469q2.297 1.641 3.984 4.875 3.469-3.47 6.797-5.25Q66.141 0 73.641 0 85.5 0 90.656 7.406q3.75 5.39 3.75 14.578V45.75q0 8.625.75 14.438H75.187q.75-5.439.75-14.485V25.922q0-5.532-1.78-7.735-1.83-2.296-5.438-2.296-3.797 0-6.938 2.625-3.28 2.812-5.156 7.687V45.75q0 8.438.75 14.438H37.453q.703-5.298.75-14.485V25.922q0-3.844-.562-5.485-1.454-4.5-6.375-4.5-4.407 0-8.203 3.844-2.438 2.485-4.079 6.516v19.406q0 8.532.75 14.484z"/><defs><linearGradient id="a" x1="-853.406" x2="203.594" y1="24.734" y2="24.734" gradientUnits="userSpaceOnUse"><stop stop-color="#001F63"/><stop offset="1" stop-color="#00E1EC"/></linearGradient></defs></svg>