<svg xmlns="http://www.w3.org/2000/svg" width="61" height="61" fill="none"><path fill="url(#a)" d="M0 60.094q.844-6.375.797-14.485V15.984q0-9.75-.75-14.484h19.031v4.031q0 .141-.047.797 0 .516-.047 1.078v.797q3.47-3.328 6.844-5.11Q31.64 0 38.813 0q9.984 0 15.374 5.39 3.704 3.704 4.735 8.579.75 3.422.75 7.547v24.14q0 9.188.797 14.438H40.5q.75-5.953.75-14.485V25.922q0-3.89-.61-5.485-1.64-4.406-7.265-4.406-8.11 0-14.297 10.125V45.61q0 7.782.75 14.485z"/><defs><linearGradient id="a" x1="-89.719" x2="967.281" y1="24.641" y2="24.641" gradientUnits="userSpaceOnUse"><stop stop-color="#001F63"/><stop offset="1" stop-color="#00E1EC"/></linearGradient></defs></svg>