<svg xmlns="http://www.w3.org/2000/svg" width="78" height="84" fill="none"><path fill="url(#a)" d="M39.375 0q11.532 0 20.438 5.39 8.625 5.205 13.078 14.25 4.64 9.47 4.64 21.704 0 10.265-3.61 19.406-2.718 6.891-8.109 12.281-10.5 10.453-27.093 10.453-8.578 0-16.266-3.093Q12.14 76.266 6.188 66.375q-3.235-5.343-4.875-12.703A54 54 0 0 1 0 41.719q0-10.36 3.563-19.453Q6.14 15.61 11.39 10.453 21.984 0 39.375 0m-.844 16.5q-7.125 0-12.047 4.875-2.906 2.906-4.265 6.563-2.344 6.374-2.344 13.64 0 7.359 2.39 13.734 1.36 3.657 4.36 6.657 4.781 4.875 12.188 4.875 7.311 0 12-4.781 2.905-2.907 4.359-6.61 2.39-6.375 2.39-13.594 0-7.64-2.39-14.062-2.062-5.672-7.219-8.813Q43.97 16.5 38.531 16.5"/><defs><linearGradient id="a" x1="-526.031" x2="530.969" y1="46.156" y2="46.156" gradientUnits="userSpaceOnUse"><stop stop-color="#001F63"/><stop offset="1" stop-color="#00E1EC"/></linearGradient></defs></svg>