<svg xmlns="http://www.w3.org/2000/svg" width="67" height="78" fill="none"><path fill="url(#a)" d="M19.64 77.719H0q.657-5.016.75-13.969V16.781Q.75 7.875 0 1.734h18.89v3.938q-.046.516-.093 1.125 3.28-2.671 6.422-4.078 6-2.72 13.218-2.719 12.844 0 20.344 7.453 7.688 7.641 7.688 22.406 0 7.829-2.672 14.72-3 7.64-10.219 12.046-6.61 4.032-15.187 4.031-7.266 0-12.985-2.484-3.14-1.407-6.61-4.453 0 .703.048 1.734v.797l.047.89v6.657q0 8.579.75 13.922m14.391-63.235q-5.296 0-9.187 3.188-5.766 4.734-5.766 12.61 0 6.89 4.313 11.343 2.25 2.344 5.437 3.516 2.579.937 5.25.937 5.72 0 9.375-3.61Q47.72 38.25 47.72 30q0-8.156-4.36-12.14-3.702-3.376-9.328-3.376"/><defs><linearGradient id="a" x1="-958.594" x2="98.406" y1="24.875" y2="24.875" gradientUnits="userSpaceOnUse"><stop stop-color="#001F63"/><stop offset="1" stop-color="#00E1EC"/></linearGradient></defs></svg>