<svg xmlns="http://www.w3.org/2000/svg" width="61" height="64" fill="none"><path fill="url(#a)" d="M60.89 36.938H17.673q.563 4.687 2.906 7.593 3.328 4.22 10.078 4.219 6 0 9.75-3.469 1.828-1.734 2.86-4.828L60 45.141q-1.875 4.218-3.375 6.328-8.25 11.625-25.594 11.625-14.156 0-22.265-8.157-4.079-4.077-6.094-9.187Q0 39.094 0 31.547q0-10.453 4.547-17.953Q8.672 6.798 15.563 3.328 22.172 0 30.516 0q11.718 0 19.312 6.281 8.906 7.406 10.36 21.422.42 3.89.562 7.313 0 .562.14 1.922m-42.937-13.22h24.61q-.704-3.233-2.391-5.39-3.281-4.03-9.61-4.031-10.17 0-12.609 9.422"/><defs><linearGradient id="a" x1="-397.875" x2="659.125" y1="25.391" y2="25.391" gradientUnits="userSpaceOnUse"><stop stop-color="#001F63"/><stop offset="1" stop-color="#00E1EC"/></linearGradient></defs></svg>